<?xml version="1.0" encoding="UTF-8" standalone="no"?>
<!-- Created with Inkscape (http://www.inkscape.org/) -->

<svg
   version="1.1"
   id="svg2"
   width="1410.1333"
   height="546.1333"
   viewBox="0 0 1410.1333 546.1333"
   xmlns="http://www.w3.org/2000/svg"
   xmlns:svg="http://www.w3.org/2000/svg">
  <defs
     id="defs6" />
  <g
     id="g8">
    <path
       style="fill:#000000;stroke-width:1.06667"
       d="m 773.33332,529.01723 c -28.06344,-3.08102 -51.80617,-11.1084 -71.96578,-24.33152 -7.41522,-4.8638 -25.39316,-21.24569 -27.3707,-24.94076 -0.81046,-1.51433 0.0132,-3.17568 3.97991,-8.02726 2.75103,-3.36475 5.39329,-6.00384 5.8717,-5.86467 0.47841,0.13918 4.36822,2.60212 8.64401,5.47321 36.59498,24.57258 78.56904,38.31915 123.10826,40.31813 l 15.0674,0.67626 0.72148,7.9619 c 0.39682,4.37904 0.52215,8.16125 0.27849,8.40489 -0.98112,0.98112 -49.88393,1.25761 -58.33477,0.32982 z m 77.85739,-3.9506 c -0.005,-1.61333 -0.30799,-5.41978 -0.67309,-8.45878 l -0.66381,-5.52545 4.13976,-0.64262 c 2.27685,-0.35345 9.41974,-1.60888 15.87308,-2.78984 47.93039,-8.77127 91.82786,-32.33626 126.81345,-68.07587 5.8007,-5.92576 10.7613,-10.7741 11.0234,-10.7741 0.2622,0 3.2949,2.21414 6.7394,4.92029 l 6.2627,4.9203 -3.5979,7.14464 c -5.9447,11.80462 -16.238,26.28478 -25.90762,36.44592 -29.95084,31.47321 -68.50184,45.76885 -123.42473,45.76885 h -16.57537 l -0.01,-2.93334 z m -47.4574,-34.51432 c -27.43201,-2.88431 -54.84307,-11.13265 -79.10774,-23.80454 -10.76347,-5.62108 -28.10018,-16.50336 -28.08362,-17.62816 0.0128,-0.87277 119.38779,-148.80567 120.34785,-149.13854 0.70443,-0.24425 5.60074,70.90957 5.53368,80.41591 -0.0212,3.0134 -0.40417,3.39352 -4.0235,3.99428 -5.18882,0.86127 -13.76514,4.91644 -18.05023,8.53476 -11.62406,9.81533 -9.825,27.38839 3.68076,35.95348 4.38055,2.77806 7.37246,3.89094 19.43614,7.22945 2.66173,0.73661 2.66895,0.7745 3.89808,20.44783 0.67728,10.84043 1.48025,23.18986 1.7844,27.44319 l 0.55301,7.73333 -8.71774,-0.14188 c -4.79477,-0.078 -12.55775,-0.54564 -17.25109,-1.03911 z m -29.91278,-43.35234 c 0.35239,-3.37333 0.83675,-7.69333 1.07635,-9.6 0.27473,-2.18614 -0.0321,-3.49301 -0.83063,-3.53799 -0.69644,-0.0392 -7.41937,-0.65985 -14.93981,-1.37915 -7.52045,-0.71928 -13.83354,-1.04719 -14.02907,-0.72866 -0.19554,0.31853 -0.52244,4.65914 -0.72645,9.6458 l -0.37094,9.06667 11.73334,1.18352 c 19.24032,1.94072 17.34786,2.42727 18.08721,-4.65019 z m 75.22333,43.17333 c -0.56557,-5.95668 -3.13845,-47.5777 -3.15443,-51.02841 -0.0223,-4.82742 0.0656,-4.95551 4.58962,-6.68325 7.41213,-2.83071 13.10292,-7.67244 16.10958,-13.70601 3.46108,-6.94548 3.46774,-11.75245 0.0259,-18.65939 -3.23897,-6.49975 -7.98285,-10.35499 -17.46719,-14.19518 l -7.01405,-2.83994 -2.7695,-44.1639 c -1.52322,-24.29015 -2.65363,-44.31349 -2.51201,-44.49633 0.32675,-0.42187 5.6836,4.15359 19.14818,16.35505 22.35574,20.25855 36.23813,31.0859 46.59118,36.33808 2.74515,1.39263 5.25258,2.95503 5.57208,3.47197 0.31949,0.51696 -1.53929,6.95173 -4.13064,14.29949 l -4.71154,13.35956 7.6728,2.74802 c 4.22003,1.51141 8.31271,2.88576 9.09483,3.05413 0.92746,0.19966 2.74899,-3.35582 5.2373,-10.22273 l 3.81525,-10.52887 3.67567,4.42503 c 5.44086,6.55008 18.90076,17.25863 38.67832,30.77203 9.66428,6.6033 19.01141,13.17344 20.77141,14.6003 l 3.2,2.59429 -9.06666,9.21459 c -18.79035,19.09692 -37.42418,32.62298 -60.26667,43.74681 -20.12734,9.8016 -18.55144,10.02632 -16.94745,-2.41662 0.7382,-5.72663 1.01337,-10.72373 0.61148,-11.10467 -0.40187,-0.38092 -4.64252,-1.02662 -9.42364,-1.43487 l -8.69294,-0.74226 -0.59252,3.03487 c -0.32588,1.66919 -1.18206,8.48023 -1.90263,15.13564 -1.19473,11.03503 -1.52503,12.18247 -3.75043,13.02856 -3.01222,1.14525 -32.33692,6.61705 -32.39132,6.04401 z m -202.64388,-31.149 c -55.6433,-37.72974 -80.1668,-92.1153 -77.42487,-171.70451 0.383,-11.11744 0.86528,-20.38244 1.07174,-20.58888 0.20645,-0.20646 4.03036,-0.0442 8.49758,0.36065 l 8.12222,0.73601 v 9.19274 c 0,5.05601 0.71246,15.28337 1.58325,22.72747 6.3163,53.99648 28.98029,101.45249 66.9841,140.25772 l 12.73694,13.00552 -5.07616,6.46114 c -2.79189,3.55364 -5.36536,6.45261 -5.71882,6.44217 -0.35345,-0.0107 -5.20264,-3.11094 -10.77598,-6.89003 z M 97.599998,458.0551 c -1.76,-0.24379 -8.48,-0.96715 -14.933333,-1.60748 -13.390796,-1.3287 -33.951004,-4.94557 -51.466666,-9.0538 L 19.2,444.57927 v -36.68965 -36.68964 h 13.292219 13.292219 l 1.144322,4.53333 c 4.707582,18.64949 11.001659,31.04194 20.772147,40.89842 13.120751,13.23622 26.2443,17.7713 51.765753,17.8886 23.78837,0.10933 37.42625,-4.48052 49.4286,-16.63522 11.59849,-11.74574 16.05662,-24.7172 16.04508,-46.68513 -0.0111,-21.18189 -4.56163,-34.28213 -16.39351,-47.19454 -11.36901,-12.40726 -23.35532,-20.28776 -59.2135,-38.93036 -45.593734,-23.70412 -64.825982,-39.19036 -77.173377,-62.14176 -7.187816,-13.36075 -9.217167,-22.41085 -9.089,-40.53333 0.130406,-18.43886 2.141612,-27.47121 9.381702,-42.13333 C 45.667146,113.5056 71.308025,96.283509 108.8,88.986781 c 12.16479,-2.367525 51.48316,-2.723836 68.8,-0.62348 10.47724,1.270785 37.73582,6.489683 45.59999,8.730528 l 4,1.139774 v 35.683187 35.6832 h -13.1121 -13.1121 l -1.30456,-4.87764 c -2.44442,-9.13938 -7.73083,-21.55048 -11.97862,-28.12264 -12.23859,-18.93548 -26.64803,-25.83882 -54.35928,-26.04269 -10.66625,-0.0785 -16.17775,0.37831 -21.25628,1.76168 -26.739907,7.28388 -41.591715,26.8658 -41.65853,54.92626 -0.04532,19.03402 6.0338,34.05413 19.134526,47.27701 10.093228,10.18733 21.230014,17.4575 48.439044,31.62135 45.47069,23.67009 64.21107,37.11151 78.19693,56.08624 11.3556,15.40625 16.17726,29.50951 17.10333,50.02697 2.63523,58.38483 -26.38043,94.05526 -84.46055,103.83169 -9.18686,1.5464 -44.4841,2.90151 -51.231802,1.96688 z m 1081.282402,-9.08289 0.3176,-6.49445 9.6,-3.07631 c 5.7066,-1.82872 11.1946,-4.39479 13.5321,-6.32734 4.9544,-4.09606 9.0047,-12.39057 10.4212,-21.3408 0.7122,-4.50014 1.1,-57.79379 1.1052,-151.85897 l 0.011,-144.92562 -24.2667,0.49528 c -19.4817,0.39762 -25.3183,0.86496 -29.6,2.37008 -16.2975,5.72894 -27.0792,22.733 -36.1893,57.07478 l -2.417,9.11113 -12.9635,0.2995 -12.9635,0.2995 V 138.16616 91.733328 h 144 144 v 46.399992 46.4 l -13.0667,-0.004 -13.0666,-0.004 -2.9703,-10.9296 c -6.6467,-24.45757 -16.4105,-43.09044 -26.4364,-50.45008 -8.733,-6.41058 -12.4683,-7.13379 -39.6888,-7.68409 l -24.2955,-0.49118 0.3295,148.11454 c 0.3608,162.12754 -0.011,152.82977 6.5066,163.94652 3.511,5.991 8.9529,9.48356 20.2799,13.01508 l 9.2083,2.87102 v 6.27429 6.27428 h -60.8509 -60.8509 l 0.3176,-6.49443 z m -886.39997,-1.04994 0.31756,-6.4777 8.28555,-2.73778 c 10.39268,-3.43403 16.89957,-8.81436 19.40283,-16.04356 0.99853,-2.88369 2.17928,-11.49158 2.74295,-19.99659 1.28239,-19.34974 1.29131,-240.66158 0.0107,-260.49999 -1.5871,-24.57989 -5.72192,-30.74155 -24.57533,-36.62146 l -5.86667,-1.82967 -0.31756,-6.52443 -0.31756,-6.524429 72.31755,8.92e-4 c 40.45333,4.98e-4 77.48746,0.477542 84.0509,1.082674 65.14392,6.006103 96.89433,34.621273 99.39832,89.583093 1.75623,38.54876 -11.76622,72.12368 -37.12389,92.17494 -13.47359,10.65408 -28.68507,17.40013 -49.31217,21.86916 -16.60403,3.5974 -33.18443,4.6929 -61.76226,4.08075 l -26.4,-0.56549 0.009,48.15365 c 0.0107,62.32501 1.21453,72.93076 9.29509,81.87499 4.63318,5.12838 9.37053,7.6924 19.15438,10.36703 l 7.27576,1.98899 0.31757,6.56132 0.31712,6.56131 H 350.93333 292.16487 Z M 422.97726,275.09772 c 15.26629,-1.53646 25.76049,-4.27082 36.3383,-9.4683 15.13922,-7.43876 27.29138,-23.1007 31.88665,-41.0961 6.16467,-24.14136 3.93764,-55.74464 -5.20454,-73.85636 -14.61683,-28.95762 -41.21063,-38.84716 -96.93101,-36.0461 l -15.73334,0.79091 v 80.42244 80.42244 h 19.01475 c 10.45811,0 24.24124,-0.52602 30.62919,-1.16893 z M 669.24447,425.36137 C 652.78638,408.3401 640.14811,390.88952 631.33435,373.01615 l -3.32517,-6.74311 9.66833,-20.56334 9.66833,-20.56336 -8.73959,-4.11347 -8.7396,-4.11349 -5.90786,12.44304 -5.90787,12.44304 -2.36561,-7.96941 c -4.81387,-16.21725 -8.74877,-42.74481 -8.7511,-58.99649 l -8.9e-4,-6.2271 4,0.57841 c 2.2,0.31814 10.12,0.88865 17.6,1.26783 7.48,0.37919 13.6,0.98818 13.6,1.35333 0,0.36514 -2.87875,3.56847 -6.39723,7.11849 l -6.39724,6.4546 6.31521,6.90744 6.31522,6.90742 13.28558,-13.18787 13.28559,-13.18787 67.95096,4.29794 c 37.37302,2.36387 68.19628,4.5433 68.49614,4.84315 0.386,0.38599 -116.09213,146.36278 -123.36156,154.60349 -0.40537,0.45954 -5.97706,-4.58381 -12.38152,-11.20745 z m 29.70633,-32.37483 c 11.51298,-3.92287 19.14474,-15.07034 19.04687,-27.82121 -0.0923,-12.02312 -6.72809,-22.21911 -18.09311,-27.80025 -15.90239,-7.80936 -36.10299,-0.15217 -42.28198,16.02728 -2.44491,6.40191 -1.82637,17.55408 1.31306,23.67428 3.83094,7.46825 11.81037,14.27724 19.45744,16.60337 4.65808,1.41693 15.446,1.05826 20.55772,-0.68347 z m -16.93682,-18.5653 c -5.56888,-2.25007 -8.58147,-10.72561 -5.71571,-16.08034 1.30978,-2.44735 6.43826,-5.27425 9.56838,-5.27425 3.05715,0 8.67255,2.94171 10.90961,5.71515 1.06402,1.31914 1.85298,4.13942 1.86667,6.67273 0.0332,6.1344 -3.88817,10.0385 -9.9884,9.9445 -2.41333,-0.0372 -5.40159,-0.4772 -6.64055,-0.97779 z m 66.74607,-64.4485 c 1.84,-4.63499 2.9617,-8.77746 2.49269,-9.20551 -1.06254,-0.96971 -30.34753,-11.903 -30.74249,-11.47742 -1.13451,1.22252 -6.72662,17.44343 -6.10079,17.69648 4.90389,1.98279 30.70047,11.64155 30.83116,11.5438 0.0957,-0.0716 1.67943,-3.92237 3.51943,-8.55735 z m 278.31835,109.11232 c -3.1598,-2.45274 -6.1362,-4.80537 -6.6142,-5.22807 -0.478,-0.42269 1.8252,-4.94489 5.1181,-10.04935 27.2248,-42.20193 40.4997,-90.10256 38.5975,-139.27432 -0.5678,-14.67786 -3.0716,-34.0582 -5.9907,-46.37006 -0.5525,-2.33019 -0.9111,-4.28662 -0.7968,-4.34763 2.1216,-1.13282 15.337,-4.33144 15.8466,-3.8355 0.995,0.96805 4.7142,19.0426 6.3967,31.08652 2.0801,14.88958 1.7854,51.91756 -0.5348,67.2 -6.0518,39.86098 -19.9706,76.17805 -41.4069,108.03898 l -4.8704,7.23897 z m -206.10845,-3.48232 c -2.83985,-0.80047 -6.19985,-2.507 -7.46666,-3.79226 l -2.30331,-2.33685 2.89585,-2.52009 c 7.3196,-6.36981 29.33107,-5.74904 34.91967,0.9848 4.68512,5.64524 -15.57053,11.18078 -28.04555,7.6644 z m 180.12615,-16.62185 c -0.3465,-0.5605 -16.09478,-12.4031 -34.99634,-26.31691 -40.18093,-29.57798 -69.34621,-51.82762 -85.03311,-64.87015 -14.82305,-12.3243 -34.13334,-29.51596 -34.13334,-30.3884 0,-0.38274 7.91156,-3.03101 17.58124,-5.88505 l 17.58124,-5.18915 6.68543,4.64083 c 3.67698,2.55246 8.80068,6.23268 11.38598,8.17827 2.5853,1.94559 4.8,3.41268 4.92156,3.26021 0.12155,-0.15248 2.6531,-3.71242 5.62565,-7.91099 l 5.40464,-7.63377 -5.34556,-3.74212 -5.34555,-3.7421 8.88601,-2.68767 c 4.88732,-1.4782 34.01809,-10.19411 64.73506,-19.36866 30.71699,-9.17455 56.46739,-16.91827 57.22309,-17.20827 1.674,-0.64239 6.2527,17.70725 8.022,32.14969 1.3494,11.01451 0.9523,15.72083 -3.3751,40 -8.1422,45.68159 -19.0748,78.87152 -33.4665,101.59999 -3.8386,6.06221 -5.1289,7.1004 -6.3564,5.11425 z m -25.24105,-53.43138 3.87826,-4.31711 4.22554,2.18378 c 2.77962,1.43655 6.26667,2.1838 10.19057,2.1838 19.60828,0 34.43778,-23.14119 28.31858,-44.19065 -2.943,-10.12358 -13.3658,-18.74268 -22.66484,-18.74268 -6.31737,0 -13.64634,3.53916 -19.54588,9.4387 -6.7835,6.7835 -9.54295,13.14225 -10.57991,24.37989 l -0.61073,6.61859 -7.09271,-6.34903 -7.09272,-6.34904 -6.45618,7.28223 -6.45618,7.28223 14.42605,12.44821 c 7.93434,6.84652 14.68612,12.44822 15.00398,12.44822 0.31784,0 2.32312,-1.94271 4.45617,-4.31714 z m 15.11298,-20.7077 c -0.71124,-0.85699 -1.54879,-3.46402 -1.86123,-5.7934 -1.04911,-7.82164 6.56608,-18.5706 11.7478,-16.5822 3.8162,1.46441 4.9328,8.83903 2.2945,15.15347 -3.21194,7.68718 -8.96449,11.09787 -12.18107,7.22213 z M 796.26665,260.69155 c -13.56686,-2.30271 -44.897,-5.53417 -70.93333,-7.31622 -21.30231,-1.45801 -86.84775,-3.71812 -109.04,-3.75985 l -8.24,-0.0155 0.46085,-2.93333 c 0.25347,-1.61333 1.01057,-6.29333 1.68246,-10.4 5.701,-34.84564 22.13213,-71.42669 44.73028,-99.58416 8.25432,-10.28497 25.46265,-27.65256 33.72953,-34.04169 4.10761,-3.174601 4.49134,-3.274242 5.96963,-1.55008 1.96014,2.28613 8.30725,11.66497 8.30725,12.27524 0,0.24655 -5.50393,4.72006 -12.23096,9.94115 -6.72702,5.22108 -12.24702,9.90482 -12.26666,10.40831 -0.0398,1.02033 10.50922,14.55124 11.34451,14.55124 0.29142,0 5.73032,-4.08 12.08644,-9.06667 6.35612,-4.98666 11.95635,-9.04122 12.44496,-9.01014 0.89017,0.0566 58.59467,82.92281 59.63892,85.64409 0.36482,0.95072 -1.93025,2.77218 -6.69777,5.31558 -3.98902,2.1281 -7.87495,4.28206 -8.63539,4.7866 -1.06713,0.70803 -0.37665,2.78233 3.02599,9.09061 2.42473,4.49529 4.65303,8.17326 4.95176,8.17326 0.29874,0 4.50573,-2.16 9.34887,-4.8 4.84315,-2.64 9.26392,-4.8 9.82393,-4.8 0.56001,0 5.45413,6.48 10.87582,14.39999 5.42168,7.92 9.47479,14.34149 9.00692,14.26998 -0.46787,-0.0715 -4.69068,-0.78181 -9.38401,-1.57841 z m -102.71438,-30.8828 c 9.36264,-3.19016 17.25689,-12.01452 20.49113,-22.90539 6.96485,-23.45322 -10.18846,-47.57068 -32.4016,-45.55646 -7.7408,0.70191 -13.35857,3.59407 -19.11815,9.84247 -7.25942,7.87555 -9.18873,13.1409 -9.18873,25.07728 0,11.93357 1.92947,17.20191 9.18135,25.06928 8.70492,9.44373 19.52079,12.39645 31.036,8.47282 z m -14.70433,-19.55349 c -4.09119,-2.4948 -6.84796,-8.12617 -6.84796,-13.98861 0,-8.09305 5.94531,-15.98332 12.05297,-15.99601 6.25995,-0.013 12.43352,7.92944 12.43352,15.99601 0,5.48429 -3.50172,12.37388 -7.28303,14.32926 -4.20213,2.17302 -6.34921,2.10239 -10.3555,-0.34065 z m 164.88537,46.4779 c 0,-0.32027 3.91822,-7.69625 8.70717,-16.39107 22.69309,-41.2017 44.70197,-92.69232 61.2409,-143.275429 3.35685,-10.266666 6.47774,-19.088623 6.93532,-19.604349 0.45759,-0.515726 5.06602,1.340842 10.24096,4.125705 31.4295,16.913594 60.9279,44.925033 80.54944,76.489083 8.9485,14.39487 21.3293,41.54201 19.6924,43.17894 -0.3189,0.31889 -15.3667,4.99885 -33.43967,10.39992 l -32.85985,9.82012 -0.6963,-6.57727 c -2.70612,-25.56209 -29.97874,-36.91226 -45.69199,-19.01586 -7.66428,8.72913 -10.31098,21.12014 -6.68927,31.31704 1.14604,3.22666 2.39961,6.58666 2.7857,7.46666 0.57063,1.30064 -5.57944,3.46315 -32.87048,11.55801 -39.01435,11.57213 -37.90433,11.26439 -37.90433,10.5085 z m 154.63967,-55.20312 c 3.79852,-0.61627 7.05922,-1.27338 7.24602,-1.46024 0.3457,-0.34567 -2.8074,-25.78481 -3.4565,-27.88692 -0.254,-0.82282 -2.88732,-0.82282 -9.2465,0 -6.8179,0.88217 -8.96967,1.56005 -9.22733,2.90694 -0.18481,0.96608 0.40963,7.10258 1.32097,13.63669 0.91135,6.53409 1.657,12.34365 1.657,12.91015 0,1.31955 3.08941,1.29141 11.70634,-0.10667 z m -48.99676,-62.72469 6.22829,-3.93806 -5.88599,-9.56699 c -3.23731,-5.26183 -6.28155,-9.9762 -6.765,-10.47636 -0.9923,-1.02662 -16.02021,7.52197 -16.02021,9.11308 0,0.56497 2.69246,5.53908 5.98325,11.05356 6.74278,11.29912 5.19135,10.93956 16.45966,3.81477 z m -183.25904,31.6246 -56.81614,-82.259474 2.94947,-2.010112 c 1.62221,-1.105561 7.62432,-4.385709 13.33802,-7.289218 45.53932,-23.141536 94.27335,-29.768676 144.46185,-19.644774 11.71885,2.363897 30.47989,7.881699 32.01374,9.415542 1.79097,1.790973 -25.98903,75.164086 -42.86834,113.224746 -7.96175,17.95269 -34.59209,70.96345 -35.6061,70.87804 -0.36101,-0.0304 -26.22363,-37.07204 -57.4725,-82.31475 z m 54.73673,-7.11262 c 8.53811,-4.04212 15.50145,-7.76212 15.47407,-8.26666 -0.10165,-1.87354 -6.8764,-16.38401 -7.64948,-16.38401 -0.44144,0 -7.77789,3.32063 -16.30322,7.37917 l -15.50061,7.37916 3.87702,8.62083 c 2.13237,4.74147 4.03483,8.62084 4.22769,8.62084 0.19288,0 7.33641,-3.30719 15.87453,-7.34933 z m -13.79296,-37.89991 c 11.19743,-5.11685 17.42552,-13.34355 17.42552,-23.01743 0,-9.699745 -6.19549,-17.857357 -17.55316,-23.112297 -5.55298,-2.56924 -7.7411,-2.9651 -16.53333,-2.991084 -11.70452,-0.03459 -16.97182,1.3005 -24.13673,6.117884 -11.22223,7.545343 -14.79776,20.358977 -8.62171,30.897607 3.76172,6.41889 8.84563,10.25758 17.69652,13.36205 9.74072,3.41658 22.61193,2.90667 31.72289,-1.25673 z m -25.63064,-17.06523 c -2.29333,-0.85294 -5.17333,-2.56955 -6.4,-3.81467 l -2.23033,-2.26388 2.95035,-2.566953 c 6.00924,-5.228371 16.92533,-6.04987 24.98454,-1.88023 5.51489,2.853273 5.81256,5.782513 0.89635,8.820893 -4.88569,3.01953 -14.48736,3.82985 -20.20091,1.70484 z M 869.4229,95.320103 c 6.55495,-5.296149 7.26882,-6.218346 5.98648,-7.733333 -0.80079,-0.94606 -5.40568,-6.648246 -10.23309,-12.671526 l -8.77711,-10.951416 -6.33289,4.975393 c -3.48308,2.736467 -6.78972,5.525868 -7.3481,6.198668 -0.69538,0.837881 2.07703,5.140855 8.79994,13.658108 5.39835,6.83916 9.96079,12.457893 10.13876,12.486083 0.17796,0.0282 3.67267,-2.654704 7.76601,-5.961977 z m -293.74583,152.426877 -5.12292,-0.40181 0.55421,-4.47259 c 0.30482,-2.45993 0.84512,-8.31259 1.20068,-13.00593 3.71031,-48.97596 19.70338,-91.14551 45.26493,-119.35166 13.37814,-14.762244 31.22754,-29.031765 49.22473,-39.352204 5.62809,-3.227413 5.17481,-3.462576 11.54935,5.991835 l 3.47545,5.154625 -2.51175,1.756425 c -11.06296,7.736096 -33.23453,30.352949 -44.66893,45.566029 -24.88656,33.1107 -39.34411,68.91775 -46.39301,114.90162 -0.676,4.40993 0.11183,4.20856 -12.57274,3.21366 z m 358.35629,-19.62169 c -2.21534,-1.28776 -4.96672,-7.15782 -4.96672,-10.5965 0,-3.54459 3.05944,-9.12233 5.65141,-10.30325 4.99812,-2.27718 10.34859,3.37208 10.34859,10.92649 0,3.581 -2.67283,8.69076 -5.27425,10.08301 -2.52708,1.35244 -3.26786,1.33832 -5.75903,-0.10975 z m 116.67634,-35.47867 c -0.5639,-1.48313 -2.7428,-6.84581 -4.842,-11.91706 -20.5346,-49.60621 -59.29865,-92.263877 -107.50286,-118.300844 -10.4324,-5.634946 -10.077,-4.656995 -5.47448,-15.064114 l 2.54627,-5.75757 7.1079,2.675408 c 52.70238,19.83712 90.47727,55.462806 112.39487,106.00017 3.9469,9.10069 10.4376,28.80919 12.1779,36.97688 0.7368,3.45776 0.5414,3.5669 -13.5165,7.55448 -1.2837,0.36413 -2.1857,-0.31208 -2.8911,-2.16735 z M 692.82424,64.280718 l -4.74453,-7.072441 3.4268,-2.088622 c 30.11855,-18.35711 62.50834,-30.005767 98.89347,-35.566022 16.97854,-2.594604 53.40231,-2.596279 70.4,-0.0032 19.31101,2.945945 52.51431,11.595937 55.75647,14.525454 0.45273,0.40907 -0.66619,4.11565 -2.48648,8.236843 l -3.30962,7.493079 -7.11352,-2.586271 C 893.05744,43.369502 874.6484,38.837753 860.79998,36.671903 843.82551,34.017146 807.32791,33.95159 790.93331,36.546412 760.44639,41.371669 727.9308,52.849168 704.78438,66.955644 l -7.21561,4.397516 z"
       id="path170" />
  </g>
</svg>
